<svg preserveAspectRatio="none" width="100%" height="100%" overflow="visible" style="display: block;" viewBox="0 0 139 97.2283" fill="none" xmlns="http://www.w3.org/2000/svg">
<g id="Logo">
<path id="Vector" d="M138.108 7.62939e-06L138.822 0.194162L139 10.8727V29.8998L138.465 34.1712L137.573 37.4718L136.145 40.5783L134.539 43.1023L132.576 45.4322L130.971 46.9854L129.008 48.3445L126.688 49.5094L124.012 50.4802L119.908 51.4509L132.398 51.6451L133.647 52.0334L134.361 53.0042L134.539 53.5866V61.1587L132.398 59.9937L128.294 57.4697L124.904 55.5282L124.725 56.8873L123.833 59.2171L122.406 61.547L120.621 63.6827L118.659 65.2359L116.161 66.595L113.841 67.3716L112.77 67.5658H109.023L105.99 66.7891L103.135 65.2359L101.172 63.6827L99.923 62.3236L98.4956 60.9645L95.4622 57.858L94.0347 57.0814H92.2504L90.6445 57.4697H89.0386L89.3954 56.6931L91.1798 54.5574L92.4288 53.0042L93.4994 52.2276L94.57 51.8393L96.1759 51.6451L107.239 51.4509L109.915 50.6743L112.77 49.1211L114.733 47.5679L116.517 45.6263L118.302 42.714L119.551 39.8017L120.443 36.501L120.978 32.8121L121.157 16.309L121.87 13.3967L123.119 10.8727L124.547 8.93111L126.867 6.40711L129.543 4.27141L133.29 1.94155L136.859 0.388317L138.108 7.62939e-06Z" fill="var(--fill-0, white)"/>
<path id="Vector_2" d="M84.5353 9.88586L86.6765 10.4683L89.8883 12.0216L92.5648 13.5748L95.0629 15.5163L96.8472 17.2637L97.7394 18.0404L99.7022 20.7585L100.773 22.8942L101.487 24.8358L101.843 26.5832L102.022 33.1844L102.379 36.0967L103.271 39.2032L104.52 41.3389L105.947 42.8921L108.802 44.8337L108.624 45.6103L107.196 46.7752L105.234 47.746L102.2 48.5226H98.2747L95.2413 47.746L92.3864 46.3869L90.2452 44.8337L88.4608 43.0863L87.2118 41.7272L85.7843 39.2032L84.7137 36.0967L84.1784 32.7961L84 30.2721V21.1468L84.1784 11.6333L84.3569 10.08L84.5353 9.88586Z" fill="var(--fill-0, #EE1C25)"/>
<path id="Vector_3" d="M22.1258 77.6187H23.1964L24.8023 82.2784L28.1926 92.5686L30.5122 85.579L33.0103 77.8128L33.1887 77.6187H34.2593L34.6162 78.5895L37.6496 95.6751V96.6458L37.4711 96.84H35.8652L35.5083 95.8692L33.5456 83.6375L33.3671 83.055L29.4416 95.2868L28.7279 97.0341L28.0141 97.2283L27.3004 96.4517L23.5533 84.8024L22.8395 83.055L20.6983 96.6458L20.5199 96.84H18.914L18.7356 96.6458L18.914 94.5101L21.7689 78.3953L22.1258 77.6187Z" fill="var(--fill-0, white)"/>
<path id="Vector_4" d="M77.0834 77.8128H84.0424L86.5404 78.5895L88.5032 79.9485L89.9307 81.5018L91.0013 83.4433L91.715 86.5498V88.103L91.0013 91.2095L89.7523 93.3452L88.1463 95.0926L85.6483 96.4517L84.2208 96.84H77.0834L76.7266 96.2575V78.3953L77.0834 77.8128ZM78.8678 79.7544V94.8984H83.8639L86.0051 94.1218L87.611 92.7627L88.6816 91.2095L89.3954 89.0738V85.3849L88.5032 83.055L87.0757 81.3076L84.5777 79.9485L83.6855 79.7544H78.8678Z" fill="var(--fill-0, white)"/>
<path id="Vector_5" d="M43.7163 77.8128H53.887L54.2439 78.2012V79.3661L53.887 79.7544H45.3222V86.1615H52.4596L52.9949 86.5498V87.9089L52.8164 88.103H45.3222V94.8984H53.887L54.2439 95.2867V96.4517L54.0655 96.84H43.5379L43.3594 96.6458V78.2012L43.7163 77.8128Z" fill="var(--fill-0, white)"/>
<path id="Vector_6" d="M60.3107 77.8128H70.6598L71.0167 78.3953L70.8383 79.5602L70.6598 79.7544H62.095V86.1615H69.2324L69.7677 86.7439L69.5892 88.103H62.095V94.8984H70.4814L71.0167 95.4809L70.8383 96.6458L70.6598 96.84H60.3107L60.1322 96.6458V78.007L60.3107 77.8128Z" fill="var(--fill-0, white)"/>
<path id="Vector_7" d="M0.178434 77.8128H1.60591L1.96277 78.2012L2.14121 91.2095L2.85494 92.9569L3.74711 94.1218L5.35302 94.8984H7.67266L9.10013 94.316L9.9923 93.5394L10.8845 91.5978L11.0629 90.8212L11.2413 78.007L11.4198 77.8128H12.8472L13.2041 78.007V91.0153L12.4904 93.5394L11.2413 95.2867L9.63543 96.4517L8.20796 97.0341L6.24519 97.2283L3.74711 96.6458L2.14121 95.4809L0.892169 93.9277L0.178434 92.1803L0 91.5978V78.007L0.178434 77.8128Z" fill="var(--fill-0, white)"/>
</g>
</svg>
